<svg version="1" xmlns="http://www.w3.org/2000/svg" width="504" height="504" viewBox="0 0 378.000000 378.000000"><path d="M162.8 2.5c-41.2 5.6-80.9 26-110.2 56.6-40.3 42-58.7 100.1-50 157.9 12.6 83.4 79.1 148.1 162.7 158.5 6.7.8 12.9 1.5 13.9 1.5 1.7 0 1.8-4.5 1.8-93.3 0-60.3-.4-95.5-1.1-99.7-4-25-23.4-46.5-48.7-54.2-5.5-1.7-10.5-2.1-27-2.5l-20.3-.5.7 2.8c1.9 8.6 2.7 11.4 4.6 16.4 9.8 25.5 34.1 45.8 60.4 50.3 4.4.8 8.9 1.9 10.1 2.6 6 3.1 7.1 11 2.4 16.3-2.7 3.1-3.4 3.3-8.8 3.2-13.6-.3-36-9-49.3-19.2-26.3-19.9-40.3-46.6-41.7-79.5l-.6-13.8 33.9.3c38.3.5 40.9.9 57.1 9 28.3 14.1 46.2 40.8 49.5 73.6l1.2 12.1 5.9-5.5c12.1-11.2 24.4-17.9 40.6-22 8.9-2.3 11-2.4 40.7-2.4H322v8.8c0 29.1-11.1 55.6-31.7 75.5-8.9 8.7-14.6 12.8-25.3 18.2-14.4 7.3-27 10.2-32.1 7.5-4.4-2.4-6.1-9.8-3.4-14.9 1.5-3.1 4-4.3 12.8-6.6 11.5-3 26.1-11.9 35.2-21.6 11-11.7 17.1-23.4 20.9-39.8l1.5-6.3-20.2.5c-22.4.5-27.1 1.4-39.1 7.3-17.6 8.7-30.8 25-35.6 44-1.9 7.3-2 11.3-2 70.1V376h3.8c5.9 0 21.9-2.8 31.7-5.6C321 347.2 377 273.9 377 189.2c0-47.7-16.4-90.7-48.1-125.6-30.5-33.9-69.2-54.4-115-61.1-12.9-1.8-37.5-1.8-51.1 0z"/></svg>